# xmcd
#
# Track frame offsets:
#	150
#	31020
#	57368
#	83574
#	102841
#	127052
#	152197
#	178296
#	214763
#	235722
#	259214
#
# Disc length: 3760 seconds
#
# Revision: 0
# Processed by: cddbd v1.5.1PL2 Copyright (c) Steve Scherf et al.
# Submitted via: dBpowerAMP V4.0
#
DISCID=910eae0b
DTITLE=Red Hot Blues Catz Band - Live
DYEAR=2001
DGENRE=Blues
TTITLE0=Out From Under You
TTITLE1=So Fine
TTITLE2=Going Through
TTITLE3=Just A Little Bit
TTITLE4=Down So Long
TTITLE5=Sooner or Later
TTITLE6=Winds of Change
TTITLE7=Testify
TTITLE8=If You Have to Know
TTITLE9=Burland Boogie
TTITLE10=Low Down Shame
EXTD=
EXTT0=
EXTT1=
EXTT2=
EXTT3=
EXTT4=
EXTT5=
EXTT6=
EXTT7=
EXTT8=
EXTT9=
EXTT10=
PLAYORDER=
